<svg xmlns="http://www.w3.org/2000/svg" xmlns:xlink="http://www.w3.org/1999/xlink" version="1.1" width="1000" height="1000" viewBox="0 0 1000 1000" xml:space="preserve">
<desc>Created with Fabric.js 3.5.0</desc>
<defs>
</defs>
<rect x="0" y="0" width="100%" height="100%" fill="rgba(255,255,255,0)"/>
<g transform="matrix(24.57 0 0 24.57 508.9414 499.9995)" id="342892">
<rect style="stroke: none; stroke-width: 1; stroke-dasharray: none; stroke-linecap: butt; stroke-dashoffset: 0; stroke-linejoin: miter; stroke-miterlimit: 4; is-custom-font: none; font-file-url: none; fill: rgb(246,252,255); fill-rule: nonzero; opacity: 1;" vector-effect="non-scaling-stroke" x="-18.5" y="-18.5" rx="18.5" ry="18.5" width="37" height="37"/>
</g>
<g transform="matrix(1 0 0 1 500 500)" id="772696">
<rect style="stroke: none; stroke-width: 1; stroke-dasharray: none; stroke-linecap: butt; stroke-dashoffset: 0; stroke-linejoin: miter; stroke-miterlimit: 4; is-custom-font: none; font-file-url: none; fill: rgb(246,252,255); fill-rule: nonzero; opacity: 1;" vector-effect="non-scaling-stroke" x="-18.5" y="-18.5" rx="18.5" ry="18.5" width="37" height="37"/>
</g>
<g transform="matrix(1 0 0 1 500 500)" id="4559">
<rect style="stroke: none; stroke-width: 1; stroke-dasharray: none; stroke-linecap: butt; stroke-dashoffset: 0; stroke-linejoin: miter; stroke-miterlimit: 4; is-custom-font: none; font-file-url: none; fill: rgb(246,252,255); fill-rule: nonzero; opacity: 1;" vector-effect="non-scaling-stroke" x="-18.5" y="-18.5" rx="18.5" ry="18.5" width="37" height="37"/>
</g>
<g transform="matrix(1 0 0 1 500 500)" id="885315">
<rect style="stroke: none; stroke-width: 1; stroke-dasharray: none; stroke-linecap: butt; stroke-dashoffset: 0; stroke-linejoin: miter; stroke-miterlimit: 4; is-custom-font: none; font-file-url: none; fill: rgb(246,252,255); fill-rule: nonzero; opacity: 1;" vector-effect="non-scaling-stroke" x="-18.5" y="-18.5" rx="18.5" ry="18.5" width="37" height="37"/>
</g>
<g transform="matrix(1 0 0 1 500 500)" id="214534">
<rect style="stroke: none; stroke-width: 1; stroke-dasharray: none; stroke-linecap: butt; stroke-dashoffset: 0; stroke-linejoin: miter; stroke-miterlimit: 4; is-custom-font: none; font-file-url: none; fill: rgb(246,252,255); fill-rule: nonzero; opacity: 1;" vector-effect="non-scaling-stroke" x="-18.5" y="-18.5" rx="18.5" ry="18.5" width="37" height="37"/>
</g>
<g transform="matrix(24.6297 0 0 24.6297 500.0002 500.0001)" id="431580">
<path style="stroke: none; stroke-width: 1; stroke-dasharray: none; stroke-linecap: butt; stroke-dashoffset: 0; stroke-linejoin: miter; stroke-miterlimit: 4; is-custom-font: none; font-file-url: none; fill: rgb(8,23,77); fill-rule: nonzero; opacity: 1;" vector-effect="non-scaling-stroke" transform=" translate(-7.624, -6.0002)" d="M 5.33339 11.3334 L 6.40003 10.2667 L 2.88543 6.75214 L 15.2479 6.75214 L 15.2479 5.24817 L 2.88543 5.24817 L 6.40003 1.73357 L 5.33338 0.666927 L 0.000155374 6.00016 L 5.33339 11.3334 Z" stroke-linecap="round"/>
</g>
</svg>